<svg xmlns="http://www.w3.org/2000/svg" width="164" height="34"><path fill-rule="evenodd" fill="#10d68a" d="M104.616 26.671c-.176 0-.36-.06-.552-.18-.192-.12-.448-.332-.768-.636l-8.544-7.656v7.488c0 .224-.052.388-.156.492-.104.104-.276.156-.516.156h-3.24c-.224 0-.388-.052-.492-.156-.104-.104-.156-.268-.156-.492V10.183c0-.656.2-.984.6-.984.16 0 .34.064.54.192s.46.336.78.624l8.544 7.656v-7.488c0-.224.052-.388.156-.492.104-.104.268-.156.492-.156h3.264c.432 0 .648.216.648.648v15.504c0 .656-.2.984-.6.984zm-16.152-.336h-3.6c-.32 0-.572-.056-.756-.168-.184-.112-.364-.304-.54-.576l-2.592-4.248a.73.73 0 00-.252-.264.787.787 0 00-.372-.072h-1.368c-.16 0-.264.024-.312.072-.048.048-.072.152-.072.312v4.296c0 .224-.052.388-.156.492-.104.104-.276.156-.516.156h-3.24c-.224 0-.388-.052-.492-.156-.104-.104-.156-.268-.156-.492V10.183c0-.224.052-.388.156-.492.104-.104.268-.156.492-.156h6.048c2.4 0 4.216.468 5.448 1.404 1.232.936 1.848 2.332 1.848 4.188 0 1.136-.248 2.108-.744 2.916-.496.808-1.192 1.452-2.088 1.932l3.672 5.592c.096.144.144.28.144.408 0 .112-.048.2-.144.264-.096.064-.232.096-.408.096zm-5.82-12.42c-.472-.28-1.196-.42-2.172-.42h-1.488c-.16 0-.264.028-.312.084-.048.056-.072.156-.072.3v2.976c0 .144.024.244.072.3.048.056.152.084.312.084h1.488c.976 0 1.7-.156 2.172-.468.472-.312.708-.796.708-1.452 0-.656-.236-1.124-.708-1.404zm-9.516 12.42H69.72c-.32 0-.544-.04-.672-.12-.128-.08-.248-.248-.36-.504l-.84-1.752c-.064-.128-.124-.212-.18-.252-.056-.04-.148-.06-.276-.06h-5.688c-.128 0-.22.02-.276.06-.056.04-.116.124-.18.252l-.816 1.752c-.112.256-.236.424-.372.504-.136.08-.348.12-.636.12h-3.288c-.368 0-.552-.12-.552-.36 0-.144.04-.288.12-.432l7.608-15.144c.24-.464.456-.788.648-.972a.94.94 0 01.672-.276c.24 0 .456.092.648.276.192.184.408.508.648.972l7.608 15.144a.86.86 0 01.144.432c0 .24-.184.36-.552.36zm-7.104-6.648l-1.488-3.144-1.464 3.144c-.048.064-.972.128-.972.192 0 .112.988.168 1.164.168h2.568c.176 0 .264-.056.264-.168a.32.32 0 00-.072-.192zM54.6 26.335H44.328c-.224 0-.388-.052-.492-.156-.104-.104-.156-.268-.156-.492V10.183c0-.224.052-.388.156-.492.104-.104.268-.156.492-.156h10.248c.448 0 .672.216.672.648v2.664c0 .24-.052.408-.156.504-.104.096-.276.144-.516.144h-5.952c-.16 0-.264.028-.312.084-.048.056-.072.156-.072.3v1.68c0 .144.024.24.072.288.048.048.152.072.312.072h5.16c.224 0 .388.056.492.168.104.112.156.28.156.504v2.616c0 .224-.052.388-.156.492-.104.104-.268.156-.492.156h-5.16c-.16 0-.264.028-.312.084-.048.056-.072.156-.072.3v1.752c0 .144.024.244.072.3.048.056.152.084.312.084H54.6c.24 0 .412.048.516.144.104.096.156.264.156.504v2.664c0 .432-.224.648-.672.648z"/><path fill-rule="evenodd" fill="#FFF" d="M162.005 14.194c-.144.208-.296.312-.456.312a.679.679 0 01-.456-.192c-1.296-.944-2.552-1.416-3.768-1.416-.576 0-1.024.108-1.344.324-.32.216-.48.5-.48.852a.91.91 0 00.264.672c.176.176.44.324.792.444.352.12.88.268 1.584.444 1.264.304 2.296.676 3.096 1.116.8.44 1.404.992 1.812 1.656.408.664.612 1.468.612 2.412 0 1.136-.28 2.12-.84 2.952-.56.832-1.352 1.468-2.376 1.908-1.024.44-2.216.66-3.576.66-1.232 0-2.376-.189-3.432-.564a9.897 9.897 0 01-2.832-1.548 1.372 1.372 0 01-.288-.276.497.497 0 01-.096-.3c0-.16.072-.344.216-.552l1.368-2.088c.144-.24.304-.36.48-.36.128 0 .288.072.48.216.592.432 1.24.78 1.944 1.044a5.979 5.979 0 002.112.396c.704 0 1.236-.108 1.596-.324.36-.216.54-.508.54-.876a.881.881 0 00-.264-.648c-.176-.176-.46-.332-.852-.468-.392-.136-.972-.3-1.74-.492-1.184-.288-2.16-.644-2.928-1.068-.768-.424-1.356-.972-1.764-1.644-.408-.672-.612-1.496-.612-2.472 0-1.136.276-2.116.828-2.94.552-.824 1.316-1.448 2.292-1.872.976-.424 2.096-.636 3.36-.636 2.272 0 4.288.712 6.048 2.136.192.144.288.312.288.504 0 .16-.056.32-.168.48l-1.44 2.208zm-16.812 10.752c-1.448.704-3.188 1.056-5.22 1.056h-5.712c-.224 0-.388-.052-.492-.156-.104-.104-.156-.268-.156-.492V9.85c0-.224.052-.388.156-.492.104-.104.268-.156.492-.156h6.144c1.952 0 3.62.336 5.004 1.008 1.384.672 2.436 1.624 3.156 2.856.72 1.232 1.08 2.68 1.08 4.344 0 1.744-.38 3.26-1.14 4.548-.76 1.288-1.864 2.284-3.312 2.988zm-.804-9.66c-.368-.632-.916-1.12-1.644-1.464-.728-.344-1.62-.516-2.676-.516h-1.512c-.16 0-.264.028-.312.084-.048.056-.072.156-.072.3v7.824c0 .144.024.244.072.3.048.056.152.084.312.084h1.416c1.632 0 2.868-.384 3.708-1.152.84-.768 1.26-1.84 1.26-3.216 0-.864-.184-1.612-.552-2.244zm-14.208 10.716h-3.24c-.224 0-.388-.052-.492-.156-.104-.104-.156-.268-.156-.492V9.85c0-.224.052-.388.156-.492.104-.104.268-.156.492-.156h3.24c.24 0 .412.052.516.156.104.104.156.268.156.492v15.504c0 .224-.052.388-.156.492-.104.104-.276.156-.516.156zm-12.744-.792c-.224.464-.42.788-.588.972-.168.183-.356.276-.564.276-.192 0-.368-.093-.528-.276-.16-.184-.36-.508-.6-.972l-7.8-15.24a.845.845 0 01-.12-.408c0-.24.184-.36.552-.36h3.408c.304 0 .536.052.696.156.16.104.312.308.456.612l4.032 8.232 3.96-8.232c.16-.304.32-.508.48-.612.16-.104.392-.156.696-.156h3.264c.368 0 .552.112.552.336 0 .112-.048.256-.144.432l-7.752 15.24z"/><path fill-rule="evenodd" fill="#10d68a" d="M24.93 15.766L12.867 8.432c-1.083-.603-2.447.171-2.447 1.439v14.257c0 1.262 1.357 2.043 2.447 1.44l12.063-6.923c1.125-.624 1.125-2.248 0-2.879zm9.069.334C33.999 7.609 26.39.001 16.1.001 7.609.001.001 7.609.001 16.1c0 10.29 7.608 17.899 16.099 17.899 10.29 0 17.899-7.609 17.899-17.899zm-30.708 0c0-6.674 6.135-12.809 12.809-12.809 8.474 0 14.609 6.135 14.609 12.809 0 8.474-6.135 14.609-14.609 14.609-6.674 0-12.809-6.135-12.809-14.609z"/></svg>